<svg data-name="Layer 1" xmlns="http://www.w3.org/2000/svg" viewBox="0 0 507.563 105.225"><path d="M51.951 1.328l-22.43 57.477h-6.476L.448 1.328l7.25-.026 13.64 34.089c2.47 6.504 3.072 8.068 4.95 14.138h.338c1.87-6.07 2.387-7.548 4.95-14.138L45.12 1.3zM67.464 58.805H60.05V1.007h7.414zM106.508 12.322c-4.518-3.814-7.756-5.297-11.595-5.297-5.197 0-8.947 3.564-8.947 8.51a8.196 8.196 0 0 0 3.835 6.84c1.958 1.306 2.81 1.744 9.884 5.038 8.7 4.163 11.937 8.327 11.937 15.611 0 9.887-7.67 16.913-18.328 16.913-5.794 0-10.828-1.822-16.198-5.9l1.534-7.89c4.858 4.851 10.061 7.286 15.435 7.286 5.879 0 9.971-3.904 9.971-9.63 0-4.076-2.473-6.764-8.523-9.545l-5.033-2.254c-7.756-3.381-11.596-8.496-11.596-15.434 0-9.279 6.99-16.134 16.541-16.134a20.543 20.543 0 0 1 14.155 5.468zM129.44 58.805h-7.414V1.007h7.414zM183.837 1.007v6.977h-17.65a4.909 4.909 0 0 1-1.966-.261 4.913 4.913 0 0 1 .27 1.998v49.084h-7.425V9.72a5.182 5.182 0 0 1 .255-1.998 4.874 4.874 0 0 1-1.958.261h-17.57V1.007zM220.96 1.174l-29.957.003v57.559h12.72V35.098h17.901v-11.54h-17.9V12.725h20.187V1.174zM237.376.937h-9.777v57.639h34.15l2.082-11.54h-23.509V.936zM290.347 0c-17.084 0-29.966 12.713-29.966 29.566 0 17.216 12.48 30.187 29.02 30.187 17.408 0 29.566-12.123 29.566-29.482C318.967 13.015 306.666 0 290.347 0zm.232 47.586c-9.666 0-16.685-8.043-16.685-19.122 0-9.892 6.133-16.53 15.274-16.53 9.23 0 16.454 8.432 16.454 19.197 0 9.843-6.045 16.455-15.043 16.455zM352.675 34s-.14-.185-.35-.451c5.781-3.348 8.978-8.463 8.978-15.22 0-11.252-8.465-17.714-23.217-17.714a103.208 103.208 0 0 0-12.1.804l-2.616.3v57.017h12.724V37.378h3.745l14.688 21.357h15.44zm-9.638-7.615h-6.943v-14.12c1.352-.087 2.704-.184 2.704-.184 8.62 0 9.624 4.243 9.624 7.43 0 3.723-2.468 6.874-5.385 6.874zM381.294.937h-9.769v57.799h12.716V.936zM429.748 9.055C424.068 3.74 415.34.937 404.465.937l-10.101.324c.066 0-1.513.074-1.513.074h.007l-4.462.203v56.555l2.698.236c4.545.388 7.423.565 11.483.565 8.094 0 13.816-.801 19.13-2.694 9.965-3.643 16.642-14.124 16.642-26.088a29.052 29.052 0 0 0-8.601-21.057zm-7.635 31.834c-2.315 3.437-4.462 5.022-11.81 5.933a79.107 79.107 0 0 1-8.113.52s-.646-.038-1.068-.06V12.631l1.455-.067a31.087 31.087 0 0 1 13.34 2.532c5.529 2.602 9.082 8.828 9.082 15.872a17.979 17.979 0 0 1-2.886 9.92zM467.294.074h-9.037L433.9 58.736h13.222s5.492-13.517 6.675-16.412h17.39c1.171 2.909 6.6 16.412 6.6 16.412h13.61zm-2.6 31.252h-4.318l-2.156.05c.373-.836.88-1.956.88-1.956 0-.008 1.887-4.637 1.887-4.637 0-.008.724-1.969 1.57-4.245l1.612 4.26 1.893 4.554.375.955s.325.728.469 1.07c-.967-.021-2.211-.051-2.211-.051zM285.34 88.506c-25.73 3.181-50.051 6.182-77.189 8.094-39.342 2.761-73.257 3.867-103.653 3.37-.03 0-17.504-.017-11.754 1.213 1.317.282 91.757 6.056 139.17 2.722 30.15-2.112 54.6-5.96 80.483-10.039 26.085-4.107 53.082-8.356 86.719-10.706 22.507-1.586 42.408-2.37 57.723-2.258.332-.01 19.11-.168 32.01 1.827a8.439 8.439 0 0 0 3.998-.504c1.041-.415-36.539-8.96-108.669-3.874-38.896 2.727-69.355 6.508-98.838 10.155zM.29 72.38c-.487.414-.35.956.335 1.284 68.051 32.826 251.311 8.961 259.043 7.917 1.09-.144 1.739-.672 1.543-1.193-.176-.544-1.14-.915-2.253-.867-58.717 2.832-132.577 3.46-181.94 1.388C44 79.532 3.063 71.967 2.695 71.901a3.27 3.27 0 0 0-2.405.48z" fill="#fff"/><path d="M493.601 96.385c.292-.29.176-.634-.278-.815-45.753-17.713-163.147 7.254-168.1 8.335-.69.148-1.094.526-.944.865.152.333.793.52 1.509.434 37.865-4.88 85.645-9.121 117.702-10.356 21.448-.823 48.34 1.95 48.582 1.976a2.125 2.125 0 0 0 1.53-.44M500.366 44.922a7.313 7.313 0 1 1-.045 0zm-.09 1.253a5.881 5.881 0 0 0 .09 11.758 5.599 5.599 0 0 0 5.589-5.856 5.673 5.673 0 0 0-5.634-5.902zm-1.253 9.792h-1.385v-7.469a14.438 14.438 0 0 1 2.593-.223 3.702 3.702 0 0 1 2.37.582 1.884 1.884 0 0 1-.716 3.354v.088a2.24 2.24 0 0 1 1.253 1.79 5.644 5.644 0 0 0 .536 1.878h-1.43a5.096 5.096 0 0 1-.582-1.969c-.18-.804-.67-1.162-1.745-1.162h-.894zm0-4.204h.94c1.028 0 1.922-.314 1.922-1.207 0-.716-.447-1.207-1.788-1.207a5.198 5.198 0 0 0-1.074.09z" fill="#fff"/></svg>