<svg data-name="Layer 1" xmlns="http://www.w3.org/2000/svg" viewBox="0 0 151.576 23.724"><path d="M11.313.73L6.428 13.246h-1.41L.097.729l1.58-.003 2.968 7.422c.539 1.415.67 1.755 1.08 3.08h.072c.408-1.325.52-1.647 1.078-3.08L9.826.726zM13.076.66h1.614v12.587h-1.614zM23.193 3.124A3.765 3.765 0 0 0 20.67 1.97a1.839 1.839 0 0 0-1.948 1.854 1.787 1.787 0 0 0 .836 1.49 14.12 14.12 0 0 0 2.151 1.096c1.895.906 2.6 1.813 2.6 3.4a3.704 3.704 0 0 1-3.992 3.683 5.585 5.585 0 0 1-3.527-1.285l.335-1.718a4.761 4.761 0 0 0 3.36 1.587 2.037 2.037 0 0 0 2.174-2.098c0-.887-.54-1.473-1.86-2.08l-1.092-.49a3.571 3.571 0 0 1-2.527-3.359A3.455 3.455 0 0 1 20.781.535a4.477 4.477 0 0 1 3.083 1.19zM26.573.66h1.615v12.587h-1.615zM40.034.66v1.52H36.19a1.051 1.051 0 0 1-.428-.058 1.098 1.098 0 0 1 .057.435v10.69h-1.615V2.557a1.163 1.163 0 0 1 .053-.435 1.038 1.038 0 0 1-.425.058h-3.827V.66zM48.12.696l-6.524.002v12.533h2.769V8.084h3.897V5.57h-3.897V3.212h4.395V.696h-.64zM51.693.645h-2.129v12.551h7.435l.456-2.513h-5.121V.645h-.641zM63.28 10.803c-2.106 0-3.635-1.749-3.635-4.164a3.286 3.286 0 0 1 3.327-3.6c2.01 0 3.583 1.836 3.583 4.18a3.255 3.255 0 0 1-3.276 3.584M63.23.44a6.34 6.34 0 0 0-6.527 6.438 6.308 6.308 0 0 0 6.32 6.573 6.15 6.15 0 0 0 6.439-6.418A6.28 6.28 0 0 0 63.229.441M74.702 6.187h-1.51V3.11c.294-.018.588-.04.588-.04 1.877 0 2.095.923 2.095 1.618a1.384 1.384 0 0 1-1.173 1.498m2.1 1.658s-.03-.041-.077-.098a3.65 3.65 0 0 0 1.956-3.315c0-2.45-1.844-3.858-5.056-3.858a22.769 22.769 0 0 0-2.634.175l-.57.065v12.417h2.772V8.58h.813c.34.491 3.199 4.652 3.199 4.652h3.364zM83.034.645h-2.127v12.586h2.767V.645h-.64zM91.923 9.345c-.504.749-.97 1.094-2.572 1.292a16.86 16.86 0 0 1-1.766.114s-.143-.007-.233-.014V3.19l.316-.014a6.786 6.786 0 0 1 2.905.55 3.747 3.747 0 0 1 1.979 3.459 3.912 3.912 0 0 1-.63 2.16m1.664-6.933A7.915 7.915 0 0 0 88.08.645l-2.2.07-.33.015-.97.045v12.317l.586.052a26.6 26.6 0 0 0 2.501.122 11.932 11.932 0 0 0 4.167-.587 5.916 5.916 0 0 0 3.623-5.682 6.324 6.324 0 0 0-1.872-4.585M101.196 7.262h-.94s-.267.007-.47.01l.19-.423.411-1.01c0-.003.16-.432.343-.926l.352.929.41.99.083.209s.072.158.102.23c-.209-.003-.481-.01-.481-.01m.564-6.806h-1.966L94.49 13.231h2.878l1.453-3.574h3.788l1.436 3.574h2.964zM87.26 19.666c-7.29.771-14.18 1.501-21.872 1.965-11.148.67-20.757.94-29.37.818-.01 0-4.96-.005-3.332.294.374.069 26 1.47 39.435.661 8.544-.512 15.471-1.447 22.807-2.435 7.39-.998 15.04-2.03 24.57-2.6 6.38-.385 12.018-.575 16.357-.55a80.274 80.274 0 0 1 9.07.444 2.716 2.716 0 0 0 1.133-.122c.294-.1-10.353-2.175-30.791-.938-11.024.66-19.652 1.579-28.007 2.463M.083 15.887c-.139.1-.1.231.095.31 19.282 7.969 71.21 2.177 73.4 1.923.308-.036.494-.164.44-.29-.051-.13-.324-.222-.64-.21-16.637.687-37.567.84-51.554.336A208.975 208.975 0 0 1 .764 15.77a1.059 1.059 0 0 0-.682.117M151.53 21.58c.083-.072.049-.154-.078-.198-12.966-4.3-46.23 1.759-47.634 2.022-.195.037-.31.127-.267.211.043.08.223.125.426.104 10.73-1.184 24.269-2.213 33.353-2.513a137.06 137.06 0 0 1 13.765.478.666.666 0 0 0 .435-.104M111.33 6.66a6.588 6.588 0 0 0 6.72 6.64 6.708 6.708 0 0 0 2.937-.661v-2.113a4.211 4.211 0 0 1-2.819 1.045 4.746 4.746 0 0 1-3.457-1.385 4.993 4.993 0 0 1-1.352-3.544 5.013 5.013 0 0 1 1.356-3.48 4.586 4.586 0 0 1 3.336-1.434 4.38 4.38 0 0 1 2.936 1.093V.696A6.147 6.147 0 0 0 118.11 0a6.692 6.692 0 0 0-6.779 6.66M142.823 13.182h.289l4.036-9.262 1.327 9.08h1.955L148.315.059h-1.309l-4.005 9.237-3.857-9.237h-1.29L135.489 13h1.954l1.479-9.073 3.901 9.255zM128.53 11.571a4.867 4.867 0 0 1-4.792-4.93 4.782 4.782 0 1 1 9.56 0 4.863 4.863 0 0 1-4.769 4.93m0-11.571a6.68 6.68 0 0 0-6.82 6.68A6.812 6.812 0 1 0 128.53 0M110.043 10.702a1.302 1.302 0 1 1-.006 0zm-.006.204a1.053 1.053 0 1 0 .006 0zm-.244 1.87h-.233v-1.463a2.734 2.734 0 0 1 .414-.035.775.775 0 0 1 .454.11.351.351 0 0 1 .134.303.363.363 0 0 1-.286.356v.011c.129.024.217.14.245.357a1.243 1.243 0 0 0 .093.36h-.244a1.11 1.11 0 0 1-.1-.373.272.272 0 0 0-.313-.257h-.164zm0-.81h.169c.192 0 .355-.07.355-.25 0-.13-.092-.257-.355-.257a1.123 1.123 0 0 0-.169.011z" fill="#fff"/></svg>