<svg id="Layer_1" data-name="Layer 1" xmlns="http://www.w3.org/2000/svg" viewBox="0 0 151.5755 23.724"><title>partner</title><path d="M13.7134,2.9964,8.8281,15.5139H7.417L2.4971,2.9964l1.58-.0039,2.9693,7.4228c.5385,1.4151.67,1.7549,1.0786,3.0791h.0727c.4078-1.3242.52-1.6465,1.0786-3.0791l2.95-7.4228Z" transform="translate(-2.3999 -2.2669)" fill="#fff"/><rect x="13.0765" y="0.6601" width="1.6143" height="12.5869" fill="#fff"/><path d="M25.5932,5.3909a3.7652,3.7652,0,0,0-2.5244-1.1543,1.8385,1.8385,0,0,0-1.9482,1.8545A1.787,1.787,0,0,0,21.957,7.58,14.12,14.12,0,0,0,24.1079,8.677c1.895.9063,2.6,1.8125,2.6,3.3994A3.7044,3.7044,0,0,1,22.7158,15.76a5.5852,5.5852,0,0,1-3.5269-1.2851l.3345-1.7178a4.7615,4.7615,0,0,0,3.3613,1.5869,2.037,2.037,0,0,0,2.1729-2.0976c0-.8877-.54-1.4737-1.8589-2.08l-1.0932-.49a3.5715,3.5715,0,0,1-2.5264-3.3594,3.4554,3.4554,0,0,1,3.602-3.5147,4.4767,4.4767,0,0,1,3.0826,1.1905Z" transform="translate(-2.3999 -2.2669)" fill="#fff"/><rect x="26.5726" y="0.6601" width="1.6153" height="12.5869" fill="#fff"/><path d="M42.4336,2.927v1.52H38.5913a1.0514,1.0514,0,0,1-.4282-.0577,1.0982,1.0982,0,0,1,.0571.4346v10.69H36.6045V4.8235a1.163,1.163,0,0,1,.0537-.4346,1.0376,1.0376,0,0,1-.4248.0577H32.4062V2.927Z" transform="translate(-2.3999 -2.2669)" fill="#fff"/><polygon points="48.12 0.696 41.596 0.698 41.596 13.231 44.365 13.231 44.365 8.084 48.262 8.084 48.262 5.57 44.365 5.57 44.365 3.212 48.76 3.212 48.76 0.696 48.12 0.696" fill="#fff"/><polygon points="51.693 0.645 49.564 0.645 49.564 13.196 56.999 13.196 57.455 10.683 52.334 10.683 52.334 0.645 51.693 0.645" fill="#fff"/><path d="M65.6792,13.07c-2.1055,0-3.6338-1.749-3.6338-4.1641A3.2857,3.2857,0,0,1,65.3716,5.305c2.01,0,3.583,1.8369,3.583,4.1816a3.2554,3.2554,0,0,1-3.2754,3.583M65.6284,2.7083A6.3408,6.3408,0,0,0,59.102,9.1458a6.3081,6.3081,0,0,0,6.3194,6.5732,6.15,6.15,0,0,0,6.4394-6.4179,6.2792,6.2792,0,0,0-6.2324-6.5928" transform="translate(-2.3999 -2.2669)" fill="#fff"/><path d="M77.102,8.4534h-1.51V5.3782c.2939-.0185.5879-.04.5879-.04,1.8769,0,2.0947.9228,2.0947,1.6181A1.3838,1.3838,0,0,1,77.102,8.4534m2.1,1.6582s-.03-.041-.0771-.0977a3.65,3.65,0,0,0,1.956-3.3154c0-2.4492-1.8437-3.8574-5.0556-3.8574a22.7689,22.7689,0,0,0-2.6348.1748l-.5693.0654v12.417h2.7715V10.846h.8134c.3389.4912,3.1983,4.6523,3.1983,4.6523h3.3642Z" transform="translate(-2.3999 -2.2669)" fill="#fff"/><polygon points="83.034 0.645 80.907 0.645 80.907 13.231 83.674 13.231 83.674 0.645 83.034 0.645" fill="#fff"/><path d="M94.3227,11.6116c-.5039.749-.9707,1.0947-2.5722,1.292a16.86,16.86,0,0,1-1.7657.1143s-.1425-.0069-.2334-.0137V5.4573c.1446-.0068.3165-.0146.3165-.0146a6.7859,6.7859,0,0,1,2.9052.5507,3.7466,3.7466,0,0,1,1.9785,3.458,3.9119,3.9119,0,0,1-.6289,2.16M95.9858,4.679a7.9152,7.9152,0,0,0-5.5049-1.7676L88.28,2.9827c.0146,0-.3291.0137-.3291.0137h.0009l-.9716.0459V15.3587l.5869.0517c.9922.084,1.6191.1221,2.501.1221a11.9321,11.9321,0,0,0,4.1669-.5869,5.9158,5.9158,0,0,0,3.6231-5.6817A6.3245,6.3245,0,0,0,95.9858,4.679" transform="translate(-2.3999 -2.2669)" fill="#fff"/><path d="M103.5962,9.5286h-.9395s-.2676.0068-.4707.01c.0811-.1807.19-.4229.19-.4229l.4112-1.0107c0-.002.1592-.4307.3428-.9248.1669.4423.3515.9287.3515.9287l.4111.99.0821.209s.0722.1582.1025.23c-.209-.003-.4814-.01-.4814-.01m.5644-6.8057h-1.9668L96.8911,15.4983H99.769s1.1963-2.9433,1.4532-3.5742h3.788c.2539.6338,1.4356,3.5742,1.4356,3.5742H109.41Z" transform="translate(-2.3999 -2.2669)" fill="#fff"/><path d="M89.6606,21.9329c-7.291.7715-14.1816,1.501-21.873,1.9648-11.148.6709-20.7569.9395-29.37.8184-.0088,0-4.9595-.0049-3.3316.2939.3735.0684,26,1.4707,39.4346.6612,8.5439-.5127,15.4717-1.4473,22.8076-2.4356,7.39-.998,15.04-2.0293,24.57-2.6,6.3789-.3847,12.0176-.5752,16.3565-.5488a80.2736,80.2736,0,0,1,9.07.4433,2.7155,2.7155,0,0,0,1.1328-.122c.2939-.1006-10.3526-2.1748-30.791-.9385-11.0235.66-19.6514,1.5791-28.0069,2.4629" transform="translate(-2.3999 -2.2669)" fill="#fff"/><path d="M2.4824,18.1536c-.1382.1-.1.2314.0952.31,19.2818,7.9688,71.211,2.1768,73.4,1.9229.3086-.0352.4942-.1631.44-.29-.0508-.13-.3233-.2217-.64-.21-16.6372.6875-37.5669.84-51.5542.3369a208.9748,208.9748,0,0,1-21.06-2.1875,1.0589,1.0589,0,0,0-.6816.1172" transform="translate(-2.3999 -2.2669)" fill="#fff"/><path d="M153.93,23.847c.083-.0723.0488-.1543-.0782-.1983-12.9658-4.3-46.2295,1.7588-47.6338,2.0225-.1953.0371-.3095.1269-.2675.2109.0439.0791.2236.125.4267.1035,10.73-1.1836,24.2686-2.2129,33.3526-2.5127a137.0593,137.0593,0,0,1,13.7656.4776.6656.6656,0,0,0,.4346-.1035" transform="translate(-2.3999 -2.2669)" fill="#fff"/><path d="M113.73,8.927a6.5879,6.5879,0,0,0,6.7207,6.6407,6.7085,6.7085,0,0,0,2.9365-.6622V12.7932a4.2114,4.2114,0,0,1-2.8193,1.045,4.7459,4.7459,0,0,1-3.4571-1.3858,4.9931,4.9931,0,0,1-1.3515-3.5439,5.0131,5.0131,0,0,1,1.3554-3.48,4.5861,4.5861,0,0,1,3.336-1.4336,4.38,4.38,0,0,1,2.9365,1.0928V2.9632a6.147,6.147,0,0,0-2.8779-.6963,6.6916,6.6916,0,0,0-6.7793,6.66" transform="translate(-2.3999 -2.2669)" fill="#fff"/><polygon points="142.823 13.182 143.112 13.182 147.148 3.92 148.475 13 150.43 13 148.315 0.059 147.006 0.059 143.001 9.296 139.144 0.059 137.854 0.059 135.489 13 137.443 13 138.922 3.927 142.823 13.182" fill="#fff"/><path d="M130.9292,13.8382a4.8671,4.8671,0,0,1-4.791-4.93,4.782,4.782,0,1,1,9.5605,0,4.8632,4.8632,0,0,1-4.7695,4.93m0-11.5713a6.6791,6.6791,0,0,0-6.82,6.68,6.8118,6.8118,0,1,0,6.82-6.68" transform="translate(-2.3999 -2.2669)" fill="#fff"/><path d="M112.4429,12.969a1.3018,1.3018,0,1,1-.0059,0Zm-.0059.2041a1.0534,1.0534,0,1,0,.0059,0Zm-.2441,1.8692H111.96V13.5794a2.7339,2.7339,0,0,1,.414-.0342.7754.7754,0,0,1,.4541.11.3514.3514,0,0,1,.1338.3028.3629.3629,0,0,1-.2861.3555v.0117c.1289.0234.2168.14.2451.3564a1.2432,1.2432,0,0,0,.0928.36h-.2442a1.11,1.11,0,0,1-.1-.3731.2716.2716,0,0,0-.3125-.2568h-.164Zm0-.81h.1689c.1924,0,.3555-.0693.3555-.25,0-.1289-.0928-.2568-.3555-.2568a1.1231,1.1231,0,0,0-.1689.0117Z" transform="translate(-2.3999 -2.2669)" fill="#fff"/></svg>