<?xml version="1.0" encoding="utf-8"?>
<!-- Generator: Adobe Illustrator 23.0.1, SVG Export Plug-In . SVG Version: 6.00 Build 0)  -->
<svg version="1.1" id="Layer_1" xmlns="http://www.w3.org/2000/svg" xmlns:xlink="http://www.w3.org/1999/xlink" x="0px" y="0px"
	 width="561.7px" height="184px" viewBox="0 0 561.7 184" style="enable-background:new 0 0 561.7 184;" xml:space="preserve">
<style type="text/css">
	.st0{fill:#3EC7F4;}
	.st1{fill:url(#SVGID_1_);}
	.st2{fill:url(#SVGID_2_);}
	.st3{fill:url(#SVGID_3_);}
	.st4{fill:url(#SVGID_4_);}
	.st5{fill:url(#SVGID_5_);}
	.st6{fill:url(#SVGID_6_);}
	.st7{fill:#6CBE45;}
	.st8{fill:url(#SVGID_7_);}
</style>
<title>sarasota</title>
<polygon class="st0" points="155.1,27.9 158.2,27.9 167.6,49.9 176.9,27.9 180.1,27.9 168.9,53.8 166.2,53.8 "/>
<rect x="192.6" y="27.9" class="st0" width="3" height="25.9"/>
<path class="st0" d="M211.3,49c2.1,1.7,4.7,2.6,7.4,2.5c4.5,0,6.4-1.8,6.4-4.4c0-2.4-1.5-3.6-6.8-5.2c-6-1.8-8.6-3.7-8.6-7.6
	c0-4.2,3.5-7,9.2-7c6,0,8.5,2.5,8.5,2.5l-1.6,2.5c-1.9-1.5-4.4-2.3-6.9-2.2c-3.5,0-6.1,1.4-6.1,4.1c0,2.1,1.6,3.2,6.8,4.8
	c6.6,1.9,8.6,4.2,8.6,8c0,4.2-3.2,7.3-9.5,7.3s-9.1-3.1-9.1-3.1L211.3,49z"/>
<rect x="242" y="27.9" class="st0" width="3" height="25.9"/>
<polygon class="st0" points="258.3,27.9 278.6,27.9 278.6,30.7 269.9,30.7 269.9,53.8 266.9,53.8 266.9,30.7 258.3,30.7 "/>
<linearGradient id="SVGID_1_" gradientUnits="userSpaceOnUse" x1="123.4442" y1="123.6859" x2="123.4442" y2="-21.2264" gradientTransform="matrix(1 0 0 -1 -56.0897 139.3897)">
	<stop  offset="0" style="stop-color:#3EC7F4"/>
	<stop  offset="1" style="stop-color:#075384"/>
</linearGradient>
<path class="st1" d="M39.4,158.3c-22.6,0-39.4-11-39.4-29.8C0,109,18.9,97.2,35.4,97.2c5.4,0,9.1,1.5,10.8,3.1
	c0.4,0.4,0.5,1.1,0.1,1.5c-0.2,0.3-0.6,0.4-0.9,0.3c-14.7,0.4-31.3,11.6-31.3,28c0,11.8,7.9,20.7,25.3,20.7
	c27.6,0,44.6-19.1,44.6-38.1c0-27.4-45-31.5-45-67.8C39,23,64,0,97.6,0c22.6,0,37.1,10.4,37.1,27.8c0,18.7-18.7,30.1-33.4,30.1
	c-5,0-8.7-1.5-10.2-2.9c-0.4-0.4-0.5-1.1-0.1-1.5c0.2-0.3,0.6-0.4,0.9-0.3c13.9-0.4,29.2-11.8,29.2-26.7c0-11.8-7.9-18.7-23.4-18.7
	c-26.1,0-42.5,16-42.5,34c0,31.9,45.8,32.3,45.8,67.8C101.1,132.4,74.6,158.3,39.4,158.3"/>
<linearGradient id="SVGID_2_" gradientUnits="userSpaceOnUse" x1="329.0182" y1="123.6859" x2="329.0182" y2="-21.2264" gradientTransform="matrix(1 0 0 -1 -56.0897 139.3897)">
	<stop  offset="0" style="stop-color:#3EC7F4"/>
	<stop  offset="1" style="stop-color:#075384"/>
</linearGradient>
<path class="st2" d="M250.1,123.4c0,1.7,0.6,2.9,2.9,2.9c13.5,0,39.4-33,44.6-40.8c0.3-0.6,1-0.9,1.7-0.8c3.1,0,7.7,5.6,7.7,8.9
	c0,2.5-3.9,10.2-3.9,23.8c0,11,2.5,17,7,20.9c0.8,0.6,0.4,1.9-0.8,1.9c-12,0-19.3-9.9-19.3-24c0-3.3,0.2-6.5,0.6-9.7
	c0,0-23.8,30.3-43.5,30.3c-7.3,0-11.6-3.9-11.6-11.4c0-18.9,29.8-53.1,59.5-53.1c5.4,0,9.3,2.9,10.8,5.2c0.4,0.6,0.4,1.7-0.8,1.7
	C276.4,79.1,250.1,112.5,250.1,123.4"/>
<linearGradient id="SVGID_3_" gradientUnits="userSpaceOnUse" x1="395.9389" y1="123.6859" x2="395.9389" y2="-21.2264" gradientTransform="matrix(1 0 0 -1 -56.0897 139.3897)">
	<stop  offset="0" style="stop-color:#3EC7F4"/>
	<stop  offset="1" style="stop-color:#075384"/>
</linearGradient>
<path class="st3" d="M327.5,138.2c-9.7,0-16-5-16-11c0.1-2.8,1.1-5.5,2.9-7.7c1-1.2,2.1-1.2,2.5,0c2.7,7.3,7.7,12.4,14.9,12.4
	c5.6,0,11-3.5,11-10.8c0-11-18.2-14.7-18.2-27.6c0-9.5,9.7-21.1,28.8-21.1c9.7,0,14.7,3.7,14.7,9.7c-0.1,2.8-1.1,5.5-2.9,7.7
	c-1,1.2-2.1,1.2-2.5,0c-2.7-7-6.8-11.2-14.1-11.2c-5.6,0-10.2,3.3-10.2,10.2c0,10.6,18.4,12.6,18.4,27.8
	C356.9,126.1,346.6,138.2,327.5,138.2"/>
<linearGradient id="SVGID_4_" gradientUnits="userSpaceOnUse" x1="232.7675" y1="123.6859" x2="232.7675" y2="-21.2264" gradientTransform="matrix(1 0 0 -1 -56.0897 139.3897)">
	<stop  offset="0" style="stop-color:#3EC7F4"/>
	<stop  offset="1" style="stop-color:#075384"/>
</linearGradient>
<path class="st4" d="M240,73.5c-12.9,0-27.8,22.6-34.4,33.4c0,0,3.7-10.6,3.7-20.1c0-4.1-0.7-7.3-3.4-10.6
	c-1.4-1.2-5.1-5.4-25.2-5.7c-14.3-0.2-23.2,2.4-23.2,2.4c-28.4,6.3-52.2,35.2-52.2,52.5c0,7.5,4.4,11.4,11.6,11.4
	c19.7,0,43.5-30.3,43.5-30.3c-0.4,3.2-0.6,6.5-0.6,9.7c0,14.1,7.3,24,19.3,24c1.2,0,1.7-1.2,0.8-1.9c-4.6-3.9-7-9.9-7-20.9
	c0-13.7,3.9-21.3,3.9-23.8c0-3.3-4.6-8.9-7.7-8.9c-0.7-0.1-1.3,0.2-1.7,0.8c-5.2,7.9-31.1,40.8-44.6,40.8c-2.3,0-2.9-1.2-2.9-2.9
	c0-10.2,22.9-40,49.1-43.9c0.3,0,0.6-0.1,1-0.1c0.4,0,0.8-0.1,1.2-0.1c0.4,0,0.9-0.1,1.4-0.1c0.7,0,1.4-0.1,2.1-0.1
	c0.1,0,0.1,0,0.1,0c2.7-0.1,5.4,0.2,8.1,0.7c4.8,1,10.1,2.9,12.4,6.3c0.5,0.8,0.9,1.6,1.3,2.5c0.3,0.7,0.5,1.5,0.5,2.3
	c0.3,5.1-8.7,31-8.7,35.9c0,5.8,4.8,9.5,7.9,9.5c0.8,0,1.5-0.2,1.7-0.8c10.4-24.7,25.9-47.7,35.6-47.7c2.7,0,3.5,2.9,3.5,6.2
	c0,0.9,0.7,1.6,1.6,1.6c0.2,0,0.4-0.1,0.7-0.1c5.6-3.1,8.7-8.3,8.7-13.1C248.1,77,245.6,73.5,240,73.5"/>
<linearGradient id="SVGID_5_" gradientUnits="userSpaceOnUse" x1="510.959" y1="123.6859" x2="510.959" y2="-21.2264" gradientTransform="matrix(1 0 0 -1 -56.0897 139.3897)">
	<stop  offset="0" style="stop-color:#3EC7F4"/>
	<stop  offset="1" style="stop-color:#075384"/>
</linearGradient>
<path class="st5" d="M473.3,115.4c-4.1,6.6-13.7,14.1-20.1,14.1c-3.7,0-6-1.7-6-5.4c0-10.2,7.7-25.5,17-39.6c0.3-0.5,0.7-1,1-1.5
	c-3.1-1-6.9-2.3-11.5-4c-1.5,2.3-3.3,4.9-4.9,7.3c-8.1,12.6-14.5,26.5-14.5,37.7c0,10.8,5.6,15.1,13.9,15.1
	c14.1,0,26.1-14.5,27.1-23C475.6,114.7,474.1,113.9,473.3,115.4z"/>
<linearGradient id="SVGID_6_" gradientUnits="userSpaceOnUse" x1="531.6776" y1="123.1706" x2="531.6776" y2="-21.7417" gradientTransform="matrix(0.9999 1.718017e-02 1.718017e-02 -0.9999 -61.7308 129.9527)">
	<stop  offset="0" style="stop-color:#3EC7F4"/>
	<stop  offset="1" style="stop-color:#075384"/>
</linearGradient>
<path class="st6" d="M475.7,62.3c1.5-3.7,2.5-7.3,2.5-9.8c0.1-5.8-1.9-9.4-6.4-12.1c-1.4-0.9-2.9-0.5-2.9,1.4
	c-0.1,4.3-1.9,10-4.6,16.1C468.3,59,472.1,60.5,475.7,62.3z"/>
<path class="st7" d="M386.5,74.2l1.2-1.2c0.4-0.4,0.8-0.9,1.4-1.5c0.6-0.5,1.3-1.2,2.1-1.9c0.8-0.7,1.7-1.4,2.7-2.1
	c1-0.7,2.2-1.5,3.4-2.3c2.8-1.7,5.8-3.2,8.9-4.5c3.7-1.4,7.4-2.6,11.3-3.4c4.3-0.9,8.7-1.5,13.1-1.7c9.7-0.4,19.3,0.8,28.5,3.7
	c1.3,0.4,2.2,0.7,3.4,1.2c1.2,0.4,2.3,0.9,3.4,1.3c2.2,0.9,4.4,1.8,6.5,2.7c4.2,1.8,8.3,3.6,12.2,5.1c3.7,1.4,7.5,2.6,11.4,3.4
	c1.8,0.4,3.6,0.6,5.4,0.8c1.8,0.1,3.5,0.2,5.2,0.2c3.1,0,6.1-0.3,9.1-0.8c2.4-0.4,4.7-1,7.1-1.6c1.9-0.6,3.5-1.1,4.5-1.5
	c1-0.4,1.6-0.6,1.6-0.6s-0.4,0.4-1.3,1.1c-1.3,1-2.6,2-4,2.9c-2.2,1.4-4.4,2.6-6.8,3.5c-3.1,1.3-6.4,2.2-9.7,2.8
	c-1.9,0.3-3.9,0.6-5.8,0.7c-2.1,0.1-4.2,0.1-6.3-0.1c-4.5-0.4-8.9-1.3-13.2-2.6c-4.4-1.4-8.7-3.1-13-4.9c-2.1-0.9-4.2-1.7-6.4-2.6
	c-1.1-0.4-2.1-0.8-3.1-1.2c-1-0.4-2.3-0.8-3.2-1.2c-4.2-1.4-8.5-2.6-12.8-3.3c-4.2-0.8-8.5-1.2-12.9-1.4c-4.1-0.2-8.1,0-12.2,0.3
	c-3.6,0.3-7.3,0.9-10.8,1.7c-3,0.7-6,1.6-8.9,2.7c-1.3,0.5-2.5,1-3.6,1.5c-1.1,0.5-2.1,1-3,1.5c-0.9,0.5-1.7,0.9-2.4,1.3
	c-0.7,0.4-1.3,0.8-1.7,1.1C387,73.9,386.5,74.2,386.5,74.2z"/>
<linearGradient id="SVGID_7_" gradientUnits="userSpaceOnUse" x1="519.5892" y1="123.6859" x2="519.5892" y2="-21.2264" gradientTransform="matrix(1 0 0 -1 -56.0897 139.3897)">
	<stop  offset="0" style="stop-color:#3EC7F4"/>
	<stop  offset="1" style="stop-color:#075384"/>
</linearGradient>
<path class="st8" d="M561.3,76.3c0,0-0.2-0.1-0.5-0.3c-0.4-0.3-0.9-0.6-1.4-0.9c-1.8-1.1-3.8-2-5.8-2.6c-3.3-1-6.7-1.4-10.2-1.1
	l-1.5,0.2c-0.5,0.1-1.1,0.2-1.6,0.3c-0.6,0.1-1.1,0.3-1.7,0.4l-0.7,0.2l-0.4,0.1l-0.2,0.1l-0.1,0c0.1,0-0.2,0.1-0.2,0.1l0,0
	c-2.2,0.8-4.3,1.7-6.3,2.7c-2.1,1.1-4.1,2.2-6.1,3.4c-1,0.6-2,1.1-3,1.7c-1,0.5-2,1.1-2.9,1.5l-0.8,0.4l-0.4,0.2l-0.1,0
	c-0.1,0,0.1,0,0,0l-0.1,0l-0.2,0.1c-0.5,0.2-1,0.4-1.5,0.6c-1,0.4-2.1,0.7-3.2,1c-2.3,0.6-4.6,1-6.9,1.2c-1.2,0.1-2.5,0.2-3.7,0.3
	c-0.6,0-1.3,0.1-1.9,0.1l-2,0c-2.4,0-4.9-0.2-7.3-0.5c-5.2-0.9-10.3-2.4-15.2-4.4c-2.6-1-5.2-2.1-7.9-3.2c-1.3-0.6-2.7-1.1-4.1-1.7
	l-2-0.8l-1.1-0.4l-1.1-0.4c-5.5-2.1-11.2-3.7-17-4.8c-1.4-0.2-2.8-0.5-4.2-0.7c-0.7-0.1-1.4-0.2-2.1-0.3l-2.1-0.2
	c-2.8-0.2-5.5-0.3-8.1-0.3c-5,0.1-9.9,0.7-14.7,1.9c-2.1,0.5-4.2,1.1-6.3,1.9c-1.9,0.6-3.7,1.4-5.5,2.2c-2.9,1.4-5.6,3-8.2,4.8
	c-0.9,0.7-1.7,1.3-2.4,1.9c-12.4,8.9-22.8,23.7-23.3,37.9c-0.4,13.3,8.9,18.4,19.5,18.4c21.1,0,41.2-16.1,41.2-35.4
	c0-0.8,0-1.6-0.1-2.4c-0.2-2.3-0.6-4.5-1.3-6.7c-2.3-6.9-6.6-10-11.7-8.4c-1.7,0.5-3.2,1.6-4.3,2.9c-0.7,1.1-0.7,1.8,0.5,2.2
	c2,0.7,3.8,2.9,5.3,7.4c0.4,1.4,0.7,2.8,0.7,4.3c0,0.3,0,0.7,0,1.1c0,1-0.1,2-0.1,3c-1.1,10.8-9.1,20-19,23.5
	c-18,5-15.7-11.8-15.7-11.8v0c2.5-17.5,17.4-41.9,43.7-40.3c0.5,0,1,0.1,1.5,0.1c1.4,0.2,2.8,0.3,4.2,0.6c0.3,0.1,0.6,0.1,0.9,0.2
	l-0.4-0.1c0.8,0.1,1.6,0.3,2.4,0.5c0.6,0.1,1.2,0.2,1.8,0.4l1.8,0.4c1.2,0.3,2.5,0.6,3.7,1c1.2,0.3,2.5,0.8,3.7,1.1
	c1.2,0.4,2.5,0.8,3.7,1.3c1.2,0.5,2.5,0.9,3.7,1.5c1.2,0.5,2.5,1,3.7,1.6l0.9,0.4l0.9,0.4l2,0.9c1.3,0.6,2.6,1.2,3.9,1.8
	c2.6,1.2,5.3,2.5,8.1,3.7c2.8,1.2,5.7,2.3,8.7,3.3c3,1,6.2,1.8,9.3,2.2c2.1,0.3,4.2,0.5,6.4,0.6c-7.6,9.3-12.3,19.2-12.3,26.7
	c0,7.5,4.4,11.4,11.6,11.4c19.7,0,43.5-30.3,43.5-30.3c-0.4,3.2-0.6,6.5-0.6,9.7c0,14.1,7.3,24,19.3,24c1.2,0,1.7-1.2,0.8-1.9
	c-4.6-3.9-7-9.9-7-20.9c0-13.7,3.9-21.3,3.9-23.8c0-3.3-4.6-8.9-7.7-8.9c-0.7-0.1-1.3,0.2-1.7,0.8c-5.2,7.9-31.1,40.8-44.6,40.8
	c-2.3,0-2.9-1.2-2.9-2.9c0-4.1,4.3-11.2,10.8-18.6C526.4,83,541,77.7,550,77.1c1-0.1,1.9-0.1,2.9-0.1c1.9,0,3.7,0.2,5.6,0.6
	c1.3,0.3,2,0.5,2,0.5l0,0c0.5,0.1,1.1-0.2,1.2-0.7C561.8,76.9,561.6,76.5,561.3,76.3L561.3,76.3z"/>
<path class="st7" d="M193.1,177c0.1-1.1,0.1-2.6,0.1-4v-18.7h2.8v9.7h0.1c1.1-1.9,3.1-3,5.3-2.8c3.8,0,6.6,3.2,6.5,7.9
	c0,5.5-3.5,8.3-6.9,8.3c-2.1,0.1-4.2-1-5.2-2.9h-0.1l-0.1,2.6L193.1,177z M196,170.8c0,0.3,0.1,0.7,0.1,1c0.5,1.9,2.2,3.3,4.2,3.3
	c2.9,0,4.7-2.4,4.7-6c0-3.1-1.6-5.8-4.6-5.8c-2.1,0-3.8,1.5-4.3,3.5c-0.1,0.4-0.1,0.8-0.2,1.2L196,170.8z"/>
<path class="st7" d="M215.7,169.7c0.1,3.8,2.5,5.4,5.3,5.4c1.5,0,2.9-0.2,4.3-0.8l0.5,2c-1.6,0.7-3.4,1-5.2,1
	c-4.8,0-7.6-3.1-7.6-7.8s2.8-8.4,7.3-8.4c5.1,0,6.4,4.4,6.4,7.3c0,0.4,0,0.9-0.1,1.3L215.7,169.7z M223.9,167.7
	c0-1.8-0.7-4.6-3.9-4.6c-2.8,0-4.1,2.6-4.3,4.6H223.9z"/>
<path class="st7" d="M242.5,177l-0.2-2h-0.1c-1.1,1.5-2.9,2.3-4.7,2.3c-2.4,0.2-4.5-1.6-4.7-4.1c0-0.1,0-0.2,0-0.4
	c0-3.7,3.3-5.8,9.3-5.8v-0.3c0-1.3-0.4-3.6-3.5-3.6c-1.4,0-2.8,0.4-4,1.2l-0.6-1.9c1.5-0.9,3.3-1.4,5.1-1.4c4.7,0,5.9,3.2,5.9,6.3
	v5.8c0,1.2,0.1,2.5,0.3,3.7L242.5,177z M242.1,169.1c-3.1-0.1-6.6,0.5-6.6,3.5c-0.1,1.4,0.9,2.6,2.3,2.7c0.1,0,0.2,0,0.4,0
	c1.7,0,3.2-1,3.7-2.6c0.1-0.3,0.2-0.6,0.2-0.9L242.1,169.1z"/>
<path class="st7" d="M264.2,176.4c-1.4,0.6-2.9,0.9-4.4,0.9c-4.7,0-7.7-3.2-7.7-7.9c0-4.8,3.3-8.2,8.3-8.2c1.3,0,2.7,0.3,3.9,0.8
	l-0.6,2.2c-1-0.5-2.1-0.8-3.3-0.7c-3.6,0-5.5,2.6-5.5,5.9c0,3.6,2.3,5.8,5.4,5.8c1.2,0,2.4-0.3,3.5-0.8L264.2,176.4z"/>
<path class="st7" d="M270.5,154.2h2.8v9.7h0.1c0.5-0.8,1.2-1.5,2-2c0.9-0.5,1.9-0.8,2.9-0.8c2.1,0,5.4,1.3,5.4,6.6v9.2h-2.8v-8.9
	c0-2.5-0.9-4.6-3.6-4.6c-1.7,0-3.2,1.2-3.8,2.8c-0.2,0.4-0.2,0.9-0.2,1.3v9.3h-2.8L270.5,154.2z"/>
<path class="st7" d="M292.3,169.7c0.1,3.8,2.5,5.4,5.3,5.4c1.5,0,2.9-0.2,4.3-0.8l0.5,2c-1.6,0.7-3.4,1-5.2,1
	c-4.8,0-7.6-3.1-7.6-7.8s2.8-8.4,7.3-8.4c5.1,0,6.4,4.4,6.4,7.3c0,0.4,0,0.9-0.1,1.3L292.3,169.7z M300.6,167.7
	c0-1.8-0.7-4.6-3.9-4.6c-2.8,0-4.1,2.6-4.3,4.6H300.6z"/>
<path class="st7" d="M310.3,174.1c1.1,0.7,2.4,1.1,3.7,1.1c2,0,3-1,3-2.3c0-1.3-0.8-2.1-2.9-2.8c-2.8-1-4.1-2.5-4.1-4.4
	c0-2.5,2-4.5,5.3-4.5c1.3,0,2.6,0.3,3.8,1l-0.7,2c-1-0.6-2-0.9-3.2-0.9c-1.7,0-2.6,1-2.6,2.1c0,1.3,0.9,1.9,2.9,2.6
	c2.7,1,4.1,2.4,4.1,4.7c0,2.7-2.1,4.6-5.8,4.6c-1.5,0-3-0.3-4.4-1.1L310.3,174.1z"/>
<path class="st7" d="M347.9,177l-0.2-2h-0.1c-1.1,1.5-2.9,2.3-4.7,2.3c-2.4,0.2-4.5-1.6-4.7-4.1c0-0.1,0-0.2,0-0.4
	c0-3.7,3.3-5.8,9.3-5.8v-0.3c0-1.3-0.4-3.6-3.5-3.6c-1.4,0-2.8,0.4-4,1.2l-0.6-1.9c1.5-0.9,3.3-1.4,5.1-1.4c4.7,0,5.9,3.2,5.9,6.3
	v5.8c0,1.2,0.1,2.5,0.3,3.7L347.9,177z M347.5,169.1c-3.1-0.1-6.6,0.5-6.6,3.5c-0.1,1.4,0.9,2.6,2.3,2.7c0.1,0,0.2,0,0.4,0
	c1.7,0,3.2-1,3.7-2.6c0.1-0.3,0.2-0.6,0.2-0.9L347.5,169.1z"/>
<path class="st7" d="M358.7,165.7c0-1.6,0-2.9-0.1-4.2h2.5l0.2,2.6h0.1c1-1.8,3-3,5.1-2.9c2.1,0,5.5,1.3,5.5,6.6v9.2h-2.8V168
	c0-2.5-0.9-4.6-3.6-4.6c-1.8,0-3.3,1.2-3.8,2.9c-0.1,0.4-0.2,0.9-0.2,1.3v9.3h-2.8V165.7z"/>
<path class="st7" d="M393,154.2V173c0,1.4,0,2.9,0.1,4h-2.5l-0.1-2.7h-0.1c-1,1.9-3.1,3.1-5.3,3c-3.7,0-6.6-3.2-6.6-7.9
	c0-5.2,3.2-8.3,6.9-8.3c1.9-0.1,3.7,0.8,4.7,2.4h0.1v-9.2H393z M390.2,167.8c0-0.4,0-0.8-0.1-1.2c-0.4-1.9-2.1-3.3-4.1-3.3
	c-2.9,0-4.6,2.6-4.6,6c0,3.1,1.5,5.7,4.6,5.7c2,0,3.7-1.4,4.1-3.4c0.1-0.4,0.1-0.8,0.1-1.2V167.8z"/>
<path class="st7" d="M413.5,177c0.1-1.1,0.1-2.6,0.1-4v-18.7h2.8v9.7h0.1c1.1-1.9,3.1-3,5.3-2.8c3.8,0,6.6,3.2,6.5,7.9
	c0,5.5-3.5,8.3-6.9,8.3c-2.1,0.1-4.2-1-5.2-2.9h-0.1L416,177L413.5,177z M416.5,170.8c0,0.3,0.1,0.7,0.1,1c0.5,1.9,2.2,3.3,4.2,3.3
	c2.9,0,4.7-2.4,4.7-6c0-3.1-1.6-5.8-4.6-5.8c-2.1,0-3.8,1.5-4.3,3.5c-0.1,0.4-0.1,0.8-0.2,1.2L416.5,170.8z"/>
<path class="st7" d="M436.1,169.7c0.1,3.8,2.5,5.4,5.3,5.4c1.5,0,2.9-0.2,4.3-0.8l0.5,2c-1.6,0.7-3.4,1-5.2,1
	c-4.8,0-7.6-3.1-7.6-7.8s2.8-8.4,7.3-8.4c5.1,0,6.4,4.4,6.4,7.3c0,0.4,0,0.9-0.1,1.3L436.1,169.7z M444.4,167.7
	c0-1.8-0.7-4.6-3.9-4.6c-2.8,0-4.1,2.6-4.3,4.6H444.4z"/>
<path class="st7" d="M454.8,161.5l3.4,9.2c0.4,1,0.7,2.2,1,3.2h0.1c0.3-0.9,0.6-2.1,1-3.2l3.1-9.1h3l-4.2,11c-2,5.3-3.4,8-5.3,9.7
	c-1,0.9-2.2,1.5-3.5,1.8l-0.7-2.4c0.9-0.3,1.7-0.8,2.5-1.4c1-0.8,1.8-1.9,2.4-3.1c0.1-0.2,0.2-0.4,0.2-0.7c0-0.3-0.1-0.5-0.2-0.7
	l-5.7-14.3L454.8,161.5z"/>
<path class="st7" d="M485.7,169.1c0,5.7-4,8.2-7.7,8.2c-4.2,0-7.4-3.1-7.4-8c0-5.2,3.4-8.2,7.7-8.2
	C482.7,161.1,485.7,164.4,485.7,169.1z M473.4,169.3c0,3.4,2,6,4.7,6c2.7,0,4.7-2.5,4.7-6c0-2.6-1.3-6-4.6-6
	S473.4,166.3,473.4,169.3L473.4,169.3z"/>
<path class="st7" d="M493,165.7c0-1.6,0-2.9-0.1-4.2h2.5l0.2,2.6h0.1c1-1.8,3-3,5.1-2.9c2.1,0,5.5,1.3,5.5,6.6v9.2h-2.8V168
	c0-2.5-0.9-4.6-3.6-4.6c-1.8,0-3.3,1.2-3.8,2.9c-0.1,0.4-0.2,0.9-0.2,1.3v9.3H493V165.7z"/>
<path class="st7" d="M527.9,154.2V173c0,1.4,0,2.9,0.1,4h-2.5l-0.1-2.7h-0.1c-1,1.9-3.1,3.1-5.3,3c-3.7,0-6.6-3.2-6.6-7.9
	c0-5.2,3.2-8.3,6.9-8.3c1.9-0.1,3.7,0.8,4.7,2.4h0.1v-9.2H527.9z M525.1,167.8c0-0.4,0-0.8-0.1-1.2c-0.4-1.9-2.1-3.3-4.1-3.3
	c-2.9,0-4.6,2.6-4.6,6c0,3.1,1.5,5.7,4.6,5.7c2,0,3.7-1.4,4.1-3.4c0.1-0.4,0.1-0.8,0.1-1.2L525.1,167.8z"/>
</svg>
