<svg id="Ebene_1" data-name="Ebene 1" xmlns="http://www.w3.org/2000/svg" viewBox="0 0 400 299.6001"><title>frame</title><path d="M396.4769,256.68c.002-.3521.002-.6952.002-1.043-.0289-.563-.0466-.9108-.0776-1.4049.0244-.7644.0378-1.7162.0487-2.7649.0046-.35.018-.773.02-1.14,3.2392-3.9021,1.9485-6.2058.88-8.5973-.1531-.3419-.2975-.6863-.4286-1.0351a10.1447,10.1447,0,0,1-1.1131-7.31c.0624-.3942.1245-.7509.1957-1.2218a10.1382,10.1382,0,0,0,.4752-11.8331v-.8508c-2.31-4.7508-4.6207-7.0612-.0132-12.0251,0-.169-.0068-.4177-.0068-.6654.02-3.6088-4.6007-5.9183.02-11.5976v-.47c-.0887-.4354-.1287-.7287-.16-1.0119-2.15-4.3863.16-6.6969.16-10.9688v-.9676c-2.31-3.9975-4.6207-6.3079,0-11.854V160.705c0-3.7167-2.31-8.3353,0-12.3772v-2.4906c2.3083-5.0162,0-7.3254,0-11.7585v-.9852c2.3083-3.821-9.2393-6.13-.02-11.652.0068-.2477.0111-.4932.02-.7441v-4.4542c-2.31-5.4474,0-7.7566-.0066-11.6943.0023-.2487.0046-.4987.0066-.753V99.2173c2.3083-4.5886,0-9.2072,0-13.4271v-.7286c4.6186-6.5991,4.6186-6.5991-.002-12.4771.0088-.2188,0-.5321.002-.8033,2.2128-4.6641,4.4276-6.98.5378-11.6874-.169-.2078-.3511-.4243-.5421-.63-2.306-4.0989-2.306-6.407.0132-11.6309-.0021-.2778-.0021-.632-.0089-.97V45.2251c0-.2878-.0089-.6031-.0089-.8831-4.6118-5.1428.0089-7.4522.0089-11.7785V26.9608c0-3.9289-2.31-8.5485-.0243-13.1983.0066-.2975.0134-.5953.0243-.93V3.0147H381.47c-.2754,0-.5732.02-.8665.0389-4.9118,8.4308-11.8408-3.1168-17.0879-.0389h-8.4687c-.2374.0023-.5.0223-.7329.0123-4.0276,6.148-6.3359,1.5285-12.1452.04-.242,0-.602-.0135-1.144-.0524H328.88c-.3576,0-.7441.0289-1.0885.0166-5.22,8.4531-12.1495-3.0945-17.0348-.0254-.2666.0022-.571.0022-.8773.0088h-12.625c-2.3993,1.5408-2.3993,3.85-2.3993,6.16-2.3083-2.31-4.6164-4.6195-8.7264-6.1036-.353-.0132-.7707-.05-1.06-.0567h-6.2335c-.2755-.0022-.6731.0612-.8931.05-3.87,6.11-6.1826,1.4907-11.683-.0655-.2689.0043-.551.0043-.9932.0154h-3.059c-.2466,0-.6553.0435-.8974.0435-5.716,10.7354-8.0243-3.1214-12.4894-.0435h-5.5918c-6.1114-.7687-8.4217,6.16-13.0138,0h-8.7461a2.6894,2.6894,0,0,1-.9019-.2077c-4.9208-1.5939-9.246-.88-13.5757-.191-.4334.0666-.9177.13-1.4.191-5.427,1.7485-10.0457,6.368-14.0155.2366-.3333-.0289-.6377-.0289-.9464-.0289h-2.7569a8.7347,8.7347,0,0,1-1.3573.0744c-.2089-.8431-.2089,1.4664-.2089,1.4664-4.6186,0-6.9289,0-10.6313-1.5019-.4354-.0411-.8574-.0766-1.2751-.1055a21.8033,21.8033,0,0,0-4.723.0666H164.68c-6.0881-5.3882-13.0171,1.5408-20.1082.059-.3545-.0089-.7155-.0178-1.2342-.059h-1.9115a5.7781,5.7781,0,0,0-1.1475.1156c-.1644-.8843-.1644,1.4252-.1644,1.4252-4.6187,2.3092-6.9267-2.31-12.4284-1.6175-.3331.0124-.8274.0767-1.1286.0767a67.8063,67.8063,0,0,0-17.6776,0c-.2878,0-.6466.0068-.9521-.0022-4.7651,1.543-7.0757,1.543-12.6216.0022h-.8264c-5.1751-5.3882-9.7948,1.5408-13.476.02-.28-.0034-.5587-.0054-.9286-.02H75.4593c-.2521,0-.9029.12-1.344.1379C68.5182,9.175,61.5892,2.246,57.5128,2.9858c-.2512.0046-.5078.0135-.79.0289H45.6608c-.4666,0-.9519-.0088-1.3952-.0022a38.7123,38.7123,0,0,0-8.6294-1.4516c-.3267-.0367-.5876-.0567-.8222-.0724-5.5581-3.862-12.4871,3.067-18.1977,1.1786-.4076.0432-.813.0867-1.214.1267-.8031.0833-1.5961.1566-2.3693.2209H3.0817V4.3109c0,.2123-.0021.4589-.0166.8C-.77,11.4844,8.47,16.1028,3.0885,23.2129c.01.3178-.0068.7976-.0068,1.1909v2.1825c3.0769,5.684.7675,7.9943,0,12.1975v2.6568c.01.3544.0122.6054.0146.8576-1.5552,6.1392-6.175,6.1392-.0146,12.6073v.75c.7675,4.3308,3.0769,6.6389,0,12.3993,0,.2677-.0021.6365-.0112,1.1242.7787,4.6653-3.8408,6.9734.0112,12.1529-.0155.2776.0068.7164.0377,1.3306.73,5.0375-6.1981,7.3478-.0355,12.8916,0,.329-.0022.65-.0022.952v.9252c-.0021.31-.0021.6265-.0044.9443.7341,5.2171,2.8557,7.562.4165,11.4687-.1289.2343-.282.502-.4276.7309-3.8365,4.8406-1.5251,7.15,0,10.8287-.0011.2466.02.5665.0155.8388v.9852c-.0021.2655-.0021.46-.0132.6931-1.5274,3.0425-6.1472,7.662-.089,10.8365.0355.3622.0978.8665.1022,1.3852,0,.3421,0,.7287-.0021,1.12.77,5.8682-6.1583,8.1785,0,13.077,0,.2566,0,.5177.0021.87,0,.47,0,.9476.0022,1.4307.7653,4.3486,3.0747,8.9673.0023,13.13,0,.2634,0,.5243-.0045.8787.7675,4.1976,3.0769,8.8162-.0021,12.3984.0021.2566.0021.51.0021.7487-3.852,7.2165-3.852,7.2165,0,13.2346v3.7667c-.0044.4955-.0044.7641-.0044,1.0285-6.156,5.3541-1.5362,7.6633.0044,12.364v6.9378c.0022.2756.0022.622.0045.8909-1.5451,3.6377-6.1649,5.9483.0143,11.5465-.002.2566-.002.5143-.0188.9818-3.852,7.2768-1.5406,7.2768,0,13.9535v2.3816c-1.5406,4.8-6.16,7.1088-.0021,12.1749-.0211.2655.0021.7309.0021,1.0865v4.6962c-3.852,5.3173-3.852,7.6278-.1365,11.7787.03.2876.0577.5487.0787.8065.0234.262.0412.52.0578.8073-1.5406,3.4746-3.852,8.0933-.0089,11.6111.0111.3187.0235.672.0089.9873v6.2715H6.9482c3.6389.7309,5.904,2.8525,11.0333.4209a4.1235,4.1235,0,0,0,.8453-.4209,21.9656,21.9656,0,0,0,7.1378.482c.4034-.0311.8265-.07,1.2742-.1178,4.3252.4065,6.6346,2.7171,11.9607-.3731.44.0044.8831.0089,1.2828.0089,4.94.7707,7.249,3.0813,11.92-.0045.2478.0045.4887.0045.7132.0045,3.47-1.3851,5.6872-3.3945,10.0335-.9763.2989.1376.85.3987,1.1863.5853,1.3108,2.4293,3.9676,2.0283,7.1811,1.3019.3054-.0523.5654-.1035.8209-.1579a26.868,26.868,0,0,0,6.4381-.9475c.44-.071.9186-.1032,1.3984-.1355a7.4719,7.4719,0,0,0,4.6452,1.8116A7.2006,7.2006,0,0,0,85.864,298.5c1.8938-.3454,4.1409.1988,6.2913.2566a8.3624,8.3624,0,0,1,1.04.0455c3.7422,2.5792,5.9961-.039,8.452-1.3162a6.1968,6.1968,0,0,1,1.07-.4432c5.0638,3.14,7.3721.83,11.8406.0589h1.7907a12.98,12.98,0,0,1,1.3972.1622c3.8923,2.9191,6.2015.6085,9.9514-.149.4843-.01.8876-.0132,1.31-.0132h.9174c.3178-.0023.7277.0032.961-.0045,4.6106,3.0858,6.92.7752,10.8021-.0044.4133.0021.8487-.0056,1.2587.0089h.9541c.3264.0021.6862.0077.9806.0077,4.4731,3.0736,6.7825,3.0736,11.3955.019.3286-.0046.7243-.019,1.0953-.0267h5.9237c.5009.04.864.0467,1.2184.0544,5.1573-3.5779,7.5288-1.9361,11.5619-.452.3922.14.902.2943,1.1775.4008,4.4353-1.5417,6.7435,5.3862,12.2351-.0032h7.3712c.5641-.0234.8885-.0366,1.3506-.0589,3.8365-3.41,6.0936-1.8817,9.166-.4511.371.1579.78.3112,1.082.4643,3.2546.8164,7.873,3.127,11.3276.1124a8.0319,8.0319,0,0,1,1.2441-.0667h.924c3.6168,3.0813,8.2352,3.0813,11.8563,2.0137a5.3247,5.3247,0,0,0,.731.2089c3.55.7331,5.6049-3.4544,8.4863-2.2226.262-.0023.6108-.0045.7907-.0045,4.8475.7752,7.1556,3.0858,11.8254.0045h9.8235c3.9855.7707,6.2936-8.4674,11.8674-.0023.2534.0023.5089.0023.7664.0023,5.21,3.0813,7.5177.7707,11.5654.0032.2734,0,.5976-.0032.8776-.0032h2.37a9.9883,9.9883,0,0,0,1.3217-.0366c2.05-2.67,4.93-3.4689,7.5932-2.3684a7.2653,7.2653,0,0,1,1.1263.5867c3.1613,4.4885,7.3066,2.9234,11.5719,2.0392.3888-.0821.78-.1588,1.1643-.2209a27.9348,27.9348,0,0,0,11.2587.0132c.3576,0,.7132-.0132,1.3486-.0132h1.6172c.4643-.0211.8219-.0234,1.1308-.0346,4.0365,4.0677,6.3445,2.486,9.2593,1.1031a10.1648,10.1648,0,0,1,1.3906-.462c3.9721,2.4748,6.2825.1642,10.8479-.611.2686.0022.533.0045.8018.0045h1.233c.4088,0,1.0108.0177,1.26.0032,3.6855.7675,5.9958,5.3862,11.6275-.03.3066-.0055.5843,0,1.0842.0268h.7887c.2754,0,.633.0132.9575.0289,5.3959,5.3605,7.7065-1.5674,11.5318-.05.1665.0022.3356.0022.5221.0066.3155.0257.5931.0366.9241.0366a25.5843,25.5843,0,0,0,10.7412-.0221h2.4636v-2.0128c0-.13.0289-.432.0423-.71-4.663-5.7449-4.663-8.0541-.0423-12.1006v-1.02c0-4.1732-2.31-8.7916-.0089-12.3529.0069-.25.0112-.5864.0046-.8819C401.0975,263.2287,398.7872,260.92,396.4769,256.68Zm-7.8677,32.7067H11.2761V10.8082H388.6092Z" transform="translate(0.0574 -0.2972)" fill="#fff"/></svg>